<?xml version="1.0" encoding="UTF-8"?>
<svg width="9px" height="10px" viewBox="0 0 9 10" version="1.1" xmlns="http://www.w3.org/2000/svg" xmlns:xlink="http://www.w3.org/1999/xlink">
    <!-- Generator: Sketch 45.2 (43514) - http://www.bohemiancoding.com/sketch -->
    <title>close</title>
    <desc>Created with Sketch.</desc>
    <defs></defs>
    <g id="Page-1" stroke="none" stroke-width="1" fill="none" fill-rule="evenodd">
        <g id="close" transform="translate(-4.000000, -4.000000)" fill-rule="nonzero" fill="#FFFFFF">
            <path d="M9,8.5 L9,3.5 C9,3.22385763 8.77614237,3 8.5,3 C8.22385763,3 8,3.22385763 8,3.5 L8,3.5 L8,8.5 L3,8.5 C2.72385763,8.5 2.5,8.72385763 2.5,9 C2.5,9.2761424 2.72385763,9.5 3,9.5 L8,9.5 L8,14.5 C8,14.7761424 8.22385763,15 8.5,15 C8.77614237,15 9,14.7761424 9,14.5 L9,9.5 L14,9.5 C14.2761424,9.5 14.5,9.2761424 14.5,9 C14.5,8.72385763 14.2761424,8.5 14,8.5 L9,8.5 Z" id="Combined-Shape" transform="translate(8.500000, 9.000000) rotate(45.000000) translate(-8.500000, -9.000000) "></path>
        </g>
    </g>
</svg>